<?xml version="1.0" encoding="utf-8"?>
<!-- Generator: Adobe Illustrator 19.0.1, SVG Export Plug-In . SVG Version: 6.00 Build 0)  -->
<!DOCTYPE svg PUBLIC "-//W3C//DTD SVG 1.1//EN" "http://www.w3.org/Graphics/SVG/1.1/DTD/svg11.dtd">
<svg version="1.1" id="Layer_1" xmlns="http://www.w3.org/2000/svg" xmlns:xlink="http://www.w3.org/1999/xlink" x="0px" y="0px"
	 viewBox="-259 523.5 80 90" style="enable-background:new -259 523.5 80 90;" xml:space="preserve">
<style type="text/css">
	.st0{fill:#4F4F4F;}
	.st1{fill:none;stroke:#4F4F4F;stroke-width:3;stroke-miterlimit:10;}
	.st2{fill:none;stroke:#4F4F4F;stroke-width:2;stroke-miterlimit:10;}
</style>
<path class="st0" d="M-233.6,560.3c-0.4,0-0.8,0.2-1.1,0.5c-0.3,0.3-0.5,0.7-0.5,1.1v0.1v0.2v0.1c0,0.4,0.2,0.8,0.5,1.1
	c0.3,0.3,0.7,0.5,1.1,0.5c0.4,0,0.8-0.2,1.1-0.5c0.3-0.3,0.5-0.7,0.5-1.1v-0.1v-0.2v-0.1c0-0.4-0.2-0.8-0.5-1.1
	C-232.8,560.5-233.2,560.3-233.6,560.3z"/>
<path class="st0" d="M-211.1,562.1c0-0.4-0.2-0.8-0.5-1.1c-0.3-0.3-0.7-0.5-1.1-0.5s-0.8,0.2-1.1,0.5c-0.3,0.3-0.5,0.7-0.5,1.1v0v0
	v0.2v0.1c0,0.4,0.2,0.8,0.5,1.1c0.3,0.3,0.7,0.5,1.1,0.5s0.8-0.2,1.1-0.5c0.3-0.3,0.5-0.7,0.5-1.1v-0.1v-0.1V562.1
	C-211.1,562.2-211.1,562.1-211.1,562.1L-211.1,562.1z"/>
<path class="st0" d="M-217.5,565.4c-0.7-0.1-1.3,0.3-1.6,0.9c-0.4,0.7-0.9,1.2-1.5,1.6c-0.6,0.3-1.3,0.5-2.1,0.5
	c-0.9,0-1.8-0.2-2.5-0.6c-0.7-0.4-1.2-1-1.5-1.5c-0.4-1-1.7-1.3-2.6-0.5c-0.5,0.4-0.5,1.2-0.3,1.7c0.6,1.3,1.6,2.3,2.8,3
	c1.2,0.7,2.6,1,4,1c1.2,0,2.4-0.3,3.6-0.9c1.1-0.6,2.1-1.6,2.8-2.9C-215.8,566.8-216.3,565.6-217.5,565.4z"/>
<path class="st1" d="M-192.3,567.3c0-5.6-2.4-10.7-6.1-14.4c-2-8.9-10-15.5-19.5-15.5c-2.5,0-5,0.5-7.2,1.4
	c-0.6-0.1-1.2-0.1-1.9-0.1c-7.9,0-14.7,4.6-17.9,11.2c-4.5,3.7-7.4,9.3-7.4,15.5c0,8.5,5.3,15.7,12.7,18.6
	c3.4,6.1,10,10.3,17.5,10.3c6.5,0,12.3-3.2,16-8C-198.1,583.7-192.3,576.2-192.3,567.3z"/>
<circle class="st2" cx="-196.8" cy="591.3" r="4.5"/>
<circle class="st2" cx="-188.5" cy="596.8" r="2.8"/>
</svg>
