<?xml version="1.0" encoding="utf-8"?>
<!-- Generator: Adobe Illustrator 19.0.1, SVG Export Plug-In . SVG Version: 6.00 Build 0)  -->
<!DOCTYPE svg PUBLIC "-//W3C//DTD SVG 1.1//EN" "http://www.w3.org/Graphics/SVG/1.1/DTD/svg11.dtd">
<svg version="1.1" id="Layer_1" xmlns="http://www.w3.org/2000/svg" xmlns:xlink="http://www.w3.org/1999/xlink" x="0px" y="0px"
	 viewBox="-244 543.5 50 50" style="enable-background:new -244 543.5 50 50;" xml:space="preserve">
<style type="text/css">
	.st0{fill:#4F4F4F;}
</style>
<path class="st0" d="M-219,587.8c-10.6,0-19.3-8.7-19.3-19.3s8.7-19.3,19.3-19.3s19.3,8.7,19.3,19.3
	C-199.7,587.5-200,587.8-219,587.8z M-219,551.2c-9.5,0-17.3,7.8-17.3,17.3s7.8,17.3,17.3,17.3c8.9,0,13.3,0,15.3-2s2-6.4,2-15.3
	C-201.7,559-209.4,551.2-219,551.2z"/>
<g>
	<path class="st0" d="M-227.7,563.9c-0.3,0-0.7,0.1-0.9,0.4c-0.2,0.2-0.4,0.6-0.4,0.9v0.1v0.2v0.1c0,0.3,0.1,0.7,0.4,0.9
		c0.2,0.2,0.6,0.4,0.9,0.4c0.3,0,0.7-0.1,0.9-0.4c0.2-0.2,0.4-0.6,0.4-0.9v-0.1v-0.2v-0.1c0-0.3-0.1-0.7-0.4-0.9
		C-227,564-227.4,563.9-227.7,563.9z"/>
	<path class="st0" d="M-209,565.3c0-0.3-0.1-0.7-0.4-0.9c-0.2-0.2-0.6-0.4-0.9-0.4c-0.3,0-0.7,0.1-0.9,0.4c-0.2,0.2-0.4,0.6-0.4,0.9
		v0v0v0.2v0.1c0,0.3,0.1,0.7,0.4,0.9c0.2,0.2,0.6,0.4,0.9,0.4c0.3,0,0.7-0.1,0.9-0.4c0.2-0.2,0.4-0.6,0.4-0.9v-0.1v-0.1V565.3
		C-209,565.4-209,565.4-209,565.3L-209,565.3z"/>
	<path class="st0" d="M-213.9,568.3c-0.6-0.3-1.4-0.1-1.8,0.5c-0.3,0.6-0.8,1.1-1.3,1.3c-0.5,0.3-1.1,0.4-1.7,0.4
		c-0.7,0-1.5-0.2-2.1-0.5c-0.6-0.3-1-0.8-1.2-1.3c-0.3-0.7-1-1-1.7-0.7c-0.7,0.3-1,1-0.7,1.7c0.5,1.1,1.3,1.9,2.3,2.5
		c1,0.6,2.2,0.9,3.3,0.9c1,0,2-0.2,3-0.7c0.9-0.5,1.8-1.3,2.3-2.4C-213,569.4-213.2,568.6-213.9,568.3z"/>
</g>
<rect x="-145.3" y="533.3" class="st0" width="27.2" height="27.2"/>
</svg>
