<?xml version="1.0" encoding="utf-8"?>
<!-- Generator: Adobe Illustrator 19.0.1, SVG Export Plug-In . SVG Version: 6.00 Build 0)  -->
<!DOCTYPE svg PUBLIC "-//W3C//DTD SVG 1.1//EN" "http://www.w3.org/Graphics/SVG/1.1/DTD/svg11.dtd">
<svg version="1.1" id="Layer_1" xmlns="http://www.w3.org/2000/svg" xmlns:xlink="http://www.w3.org/1999/xlink" x="0px" y="0px"
	 viewBox="-289 548.8 40 40" style="enable-background:new -289 548.8 40 40;" xml:space="preserve">
<style type="text/css">
	.st0{fill:#5E5E5E;}
</style>
<g>
	<path class="st0" d="M-254.2,563.6c-0.6,0-1,0.4-1,1v14c0,1.7-1.3,3-3,3h-22c-1.7,0-3-1.3-3-3v-19c0-1.7,1.3-3,3-3h16
		c0.6,0,1-0.4,1-1s-0.4-1-1-1h-16c-2.8,0-5,2.2-5,5v19c0,2.8,2.2,5,5,5h22c2.8,0,5-2.2,5-5v-14
		C-253.2,564.1-253.6,563.6-254.2,563.6z"/>
	<path class="st0" d="M-253.1,557.8l-3.6-3.6c-0.4-0.4-1-0.4-1.4,0l-17.2,17.2c0,0,0,0,0,0c-0.1,0.1-0.1,0.2-0.2,0.3c0,0,0,0,0,0.1
		c0,0,0,0,0,0.1l-1.6,5.2c-0.1,0.4,0,0.7,0.3,1c0.2,0.2,0.4,0.3,0.7,0.3c0.1,0,0.2,0,0.3,0l5.2-1.6c0.3-0.1,0.5-0.3,0.6-0.6
		l16.9-16.9c0.2-0.2,0.3-0.4,0.3-0.7C-252.8,558.2-252.9,557.9-253.1,557.8z M-274.6,575.8l0.5-1.8l1.3,1.3L-274.6,575.8z
		 M-271,574.2l-2.2-2.2l15.8-15.8l2.2,2.2L-271,574.2z"/>
</g>
</svg>
