<?xml version="1.0" encoding="utf-8"?>
<!-- Generator: Adobe Illustrator 19.0.1, SVG Export Plug-In . SVG Version: 6.00 Build 0)  -->
<!DOCTYPE svg PUBLIC "-//W3C//DTD SVG 1.1//EN" "http://www.w3.org/Graphics/SVG/1.1/DTD/svg11.dtd">
<svg version="1.1" id="Layer_1" xmlns="http://www.w3.org/2000/svg" xmlns:xlink="http://www.w3.org/1999/xlink" x="0px" y="0px"
	 viewBox="-269 519 100 100" style="enable-background:new -269 519 100 100;" xml:space="preserve">
<style type="text/css">
	.st0{fill:#CCCCCC;}
</style>
<path class="st0" d="M-173.9,560.4c0-3.5-2.6-6.2-6.7-6.8l-22.1-3.1l-9.8-20c-1.5-2.9-3.9-4.6-6.5-4.6c-2.7,0-5.1,1.7-6.5,4.5
	l-9.8,20.1l-22.3,3.1c-4,0.7-6.5,3.3-6.5,6.8c0,2.7,1.8,4.8,2.4,5.4c0.1,0,1.6,1.6,16.2,15.8c-3.9,22.1-3.9,22.3-3.9,22.3
	c-1.2,6.1,5.4,10.2,10.5,7.1l19.9-10.3l19.6,10.3c5.4,2.9,10.8,0.1,10.8-5.7l-3.9-23.8l16-15.6C-174.7,564-173.9,562.3-173.9,560.4
	L-173.9,560.4z M-200.5,576.8c-1.1,0.9-1.6,2.5-1.3,3.9l3.4,20.8l-18.6-9.9c-1.1-0.7-2.7-0.7-4,0l-18.7,9.8l3.5-20.8
	c0.3-1.4-0.2-2.9-1.4-3.9l-14.9-14.6l20.8-3.1c1.4-0.1,2.8-1.2,3.3-2.4l9.4-19l9.4,18.9c0.6,1.2,2,2.3,3.3,2.4l20.8,3.1
	L-200.5,576.8z"/>
</svg>
