<?xml version="1.0" encoding="utf-8"?>
<!-- Generator: Adobe Illustrator 19.0.1, SVG Export Plug-In . SVG Version: 6.00 Build 0)  -->
<!DOCTYPE svg PUBLIC "-//W3C//DTD SVG 1.1//EN" "http://www.w3.org/Graphics/SVG/1.1/DTD/svg11.dtd">
<svg version="1.1" id="Layer_1" xmlns="http://www.w3.org/2000/svg" xmlns:xlink="http://www.w3.org/1999/xlink" x="0px" y="0px"
	 viewBox="-301 546 45 45" style="enable-background:new -301 546 45 45;" xml:space="preserve">
<style type="text/css">
	.st0{fill:#FFFFFF;}
</style>
<title>MenuBar</title>
<desc>Created with Sketch.</desc>
<g>
	<g transform="translate(-611.000000, -347.000000)">
		<g transform="translate(611.000000, 347.000000)">
			<path class="st0" d="M-296,586h35c1.7,0,3-1.3,3-3l0,0c0-1.7-1.3-3-3-3h-35c-1.7,0-3,1.3-3,3l0,0C-299,584.7-297.7,586-296,586z"
				/>
			<path class="st0" d="M-296,571h35c1.7,0,3-1.3,3-3l0,0c0-1.7-1.3-3-3-3h-35c-1.7,0-3,1.3-3,3l0,0C-299,569.7-297.7,571-296,571z"
				/>
			<path class="st0" d="M-261,556h-35c-1.7,0-3-1.3-3-3l0,0c0-1.7,1.3-3,3-3h35c1.7,0,3,1.3,3,3l0,0C-258,554.7-259.3,556-261,556z"
				/>
		</g>
	</g>
</g>
</svg>
