<?xml version="1.0" encoding="utf-8"?>
<!-- Generator: Adobe Illustrator 19.0.1, SVG Export Plug-In . SVG Version: 6.00 Build 0)  -->
<!DOCTYPE svg PUBLIC "-//W3C//DTD SVG 1.1//EN" "http://www.w3.org/Graphics/SVG/1.1/DTD/svg11.dtd">
<svg version="1.1" id="Layer_1" xmlns="http://www.w3.org/2000/svg" xmlns:xlink="http://www.w3.org/1999/xlink" x="0px" y="0px"
	 viewBox="-269 518.5 100 100" style="enable-background:new -269 518.5 100 100;" xml:space="preserve">
<style type="text/css">
	.st0{fill:#CCCCCC;}
</style>
<g>
	<circle class="st0" cx="-219" cy="572.1" r="15.1"/>
	<path class="st0" d="M-239.5,530.6H-258c-5.1,0-9.3,4.1-9.3,9.3l0,0v24.3v39.7c0,5.4,4.4,9.9,9.9,9.9h76.8c5.4,0,9.9-4.4,9.9-9.9
		v-39.8v-24.3c0-5.1-4.2-9.2-9.3-9.2h-18.5H-239.5z M-253.8,549.7c-3.2,0-5.7-2.6-5.7-5.7c0-3.2,2.6-5.7,5.7-5.7
		c3.2,0,5.7,2.6,5.7,5.7C-248.1,547.2-250.6,549.7-253.8,549.7z M-219,599c-14.8,0-26.9-12-26.9-26.9c0-14.8,12-26.9,26.9-26.9
		c14.8,0,26.9,12,26.9,26.9S-204.1,599-219,599z"/>
</g>
</svg>
