<?xml version="1.0" encoding="utf-8"?>
<!-- Generator: Adobe Illustrator 19.0.1, SVG Export Plug-In . SVG Version: 6.00 Build 0)  -->
<!DOCTYPE svg PUBLIC "-//W3C//DTD SVG 1.1//EN" "http://www.w3.org/Graphics/SVG/1.1/DTD/svg11.dtd">
<svg version="1.1" id="Layer_1" xmlns="http://www.w3.org/2000/svg" xmlns:xlink="http://www.w3.org/1999/xlink" x="0px" y="0px"
	 viewBox="-269 518.5 100 100" style="enable-background:new -269 518.5 100 100;" xml:space="preserve">
<style type="text/css">
	.st0{fill:#CCCCCC;}
</style>
<path class="st0" d="M-186.8,578.3c-0.9-0.9-2.6-0.9-3.5,0c-1,1-1,2.6,0,3.5l8.6,8.6h-7.9c-12.2,0-20.2-10.5-28.4-22
	c8.2-11.5,16.2-22,28.4-22h7.9l-8.6,8.6c-1,1-1,2.6,0,3.5c0.5,0.5,1.1,0.7,1.8,0.7c0.7,0,1.3-0.3,1.8-0.7l11.5-11.5
	c0.8-0.8,1.3-2,1.3-3.1c0-1.2-0.5-2.3-1.3-3.1l-11.5-11.5c-0.9-0.9-2.6-0.9-3.5,0c-1,1-1,2.6,0,3.5l8.6,8.6h-7.9
	c-14.1,0-23.1,11.1-31.5,22.7c-8.4-11.6-17.3-22.7-31.5-22.7h-8.9c-1.4,0-2.5,1.1-2.5,2.5s1.1,2.5,2.5,2.5h8.9
	c12.2,0,20.2,10.5,28.4,22c-8.2,11.5-16.2,22-28.4,22h-8.9c-1.4,0-2.5,1.1-2.5,2.5c0,1.4,1.1,2.5,2.5,2.5h8.9
	c14.1,0,23.1-11.1,31.5-22.7c8.4,11.6,17.3,22.7,31.5,22.7h7.9l-8.6,8.6c-1,1-1,2.6,0,3.5c0.5,0.5,1.1,0.7,1.8,0.7
	c0.7,0,1.3-0.3,1.8-0.7l11.5-11.5c0.8-0.8,1.3-2,1.3-3.1c0-1.2-0.5-2.3-1.3-3.1L-186.8,578.3z"/>
</svg>
